<?xml version="1.0" standalone="no"?>
<!DOCTYPE svg PUBLIC "-//W3C//DTD SVG 20010904//EN"
 "http://www.w3.org/TR/2001/REC-SVG-20010904/DTD/svg10.dtd">
<svg version="1.0" xmlns="http://www.w3.org/2000/svg"
 width="261.000000pt" height="193.000000pt" viewBox="0 0 261.000000 193.000000"
 preserveAspectRatio="xMidYMid meet">

<g transform="translate(0.000000,193.000000) scale(0.100000,-0.100000)"
fill="#000000" stroke="none">
<path d="M1072 1805 c-7 -14 -12 -52 -12 -84 0 -47 6 -71 32 -117 30 -55 32
-65 30 -148 -3 -111 -11 -126 -136 -241 -104 -95 -161 -184 -173 -270 -5 -37
-8 -43 -16 -30 -5 9 -9 33 -9 53 0 20 -8 68 -18 107 -17 61 -19 65 -18 30 0
-22 3 -65 7 -95 3 -33 1 -75 -6 -104 -21 -81 -26 -159 -13 -206 15 -54 5 -62
-72 -57 -31 1 -54 -1 -52 -5 3 -5 10 -6 15 -3 5 4 9 1 9 -4 0 -6 6 -11 13 -11
6 -1 30 -9 52 -20 22 -11 45 -19 52 -20 7 0 17 -8 22 -19 9 -15 20 -18 66 -16
33 2 53 0 49 -6 -3 -5 -9 -7 -14 -4 -18 11 -28 -31 -24 -100 4 -76 12 -115 24
-115 4 0 13 -20 19 -44 13 -55 13 -56 1 -56 -5 0 -10 8 -10 19 0 10 -6 24 -14
30 -11 9 -12 6 -8 -16 4 -27 4 -27 -11 -8 -15 19 -15 18 -22 -18 -4 -20 -5
-43 -2 -51 3 -8 0 -17 -8 -20 -10 -4 -12 3 -8 31 4 26 3 34 -5 29 -7 -4 -12
-12 -12 -17 0 -5 -8 -19 -19 -30 -14 -15 -23 -18 -42 -11 -13 5 -42 8 -64 8
-33 -2 -40 -5 -37 -22 2 -11 0 -15 -5 -8 -4 6 -18 14 -31 18 -16 5 -22 3 -22
-8 0 -15 40 -60 56 -62 5 -1 19 -5 32 -9 12 -3 22 -3 22 2 0 5 9 9 20 10 11 1
18 -2 15 -8 -4 -5 5 -9 20 -9 14 0 28 -7 31 -15 4 -8 17 -13 34 -12 15 1 26 5
24 8 -5 9 26 20 37 14 19 -12 88 35 111 77 17 31 37 50 73 68 47 24 59 25 215
25 160 0 166 1 218 28 41 21 75 30 155 37 150 14 201 25 280 64 51 24 91 36
136 39 92 8 97 16 104 183 6 137 2 162 -40 263 -12 29 -17 33 -44 29 -20 -3
-26 -1 -19 6 24 24 9 43 -62 74 -120 51 -183 57 -240 22 -18 -11 -42 -20 -54
-20 -11 0 -29 -7 -40 -15 -29 -22 -34 -18 -34 23 0 35 -25 88 -56 119 -47 47
-69 148 -39 173 19 15 20 74 2 89 -19 15 -29 2 -12 -16 21 -20 19 -30 -10 -58
-33 -34 -79 -33 -101 0 -13 20 -15 36 -9 73 13 84 10 110 -15 137 -25 27 -42
26 -19 -1 16 -20 17 -111 0 -142 -36 -67 -152 -67 -187 -1 -27 52 -9 174 33
222 10 11 13 17 7 14 -8 -5 -13 11 -16 48 -4 41 -11 62 -30 83 -14 15 -28 34
-31 42 -5 13 -6 13 -6 -1 -1 -9 8 -24 19 -34 20 -18 26 -58 14 -89 -10 -25
-50 -19 -74 12 -19 24 -21 37 -18 110 1 45 3 82 2 82 0 0 -6 -11 -12 -25z
m367 -655 c10 -16 20 -27 24 -24 4 5 3 -46 -2 -67 0 -3 -12 -11 -25 -17 -20
-9 -28 -8 -43 6 -10 9 -17 16 -14 15 2 -2 10 2 18 8 18 15 17 59 -1 59 -19 0
-28 14 -20 34 10 26 43 18 63 -14z m-316 -116 c12 -14 32 -37 45 -51 46 -53
18 -113 -53 -113 -51 0 -73 15 -81 58 -5 26 -4 31 8 27 8 -3 21 1 28 10 11 13
11 23 2 48 -9 24 -9 33 1 39 19 12 27 10 50 -18z m-227 -886 c-4 -29 -11 -60
-17 -68 -8 -11 -8 -4 -3 25 8 47 12 75 13 94 1 8 4 12 7 8 4 -3 3 -30 0 -59z
m-28 27 c-1 -14 -6 -25 -11 -25 -5 0 -6 7 -3 16 3 9 6 20 6 25 0 5 2 9 5 9 3
0 4 -11 3 -25z m-119 -41 c10 -9 -66 -3 -79 6 -10 7 -1 8 30 4 25 -4 47 -8 49
-10z m-26 -31 c-7 -2 -19 -2 -25 0 -7 3 -2 5 12 5 14 0 19 -2 13 -5z"/>
<path d="M1296 1623 c-6 -14 -5 -15 5 -6 7 7 10 15 7 18 -3 3 -9 -2 -12 -12z"/>
<path d="M1065 1590 c10 -11 20 -20 23 -20 3 0 -3 9 -13 20 -10 11 -20 20 -23
20 -3 0 3 -9 13 -20z"/>
<path d="M1320 1437 c0 -5 5 -17 11 -28 13 -24 -10 -64 -44 -80 -19 -8 -17 -9
8 -4 32 7 55 29 55 54 -1 17 -29 72 -30 58z"/>
<path d="M1630 1038 c0 -15 5 -30 10 -33 6 -3 10 -16 11 -28 0 -12 3 -17 5
-10 3 6 -2 31 -10 55 -13 36 -15 39 -16 16z"/>
<path d="M525 589 c-4 -6 -5 -12 -2 -15 2 -3 7 2 10 11 7 17 1 20 -8 4z"/>
<path d="M492 415 c0 -16 2 -22 5 -12 2 9 2 23 0 30 -3 6 -5 -1 -5 -18z"/>
<path d="M481 364 c0 -11 3 -14 6 -6 3 7 2 16 -1 19 -3 4 -6 -2 -5 -13z"/>
<path d="M530 176 c0 -2 8 -10 18 -17 15 -13 16 -12 3 4 -13 16 -21 21 -21 13z"/>
</g>
</svg>
